<svg xmlns="http://www.w3.org/2000/svg" viewBox="0 0 2045.94 953.95"><defs><style>.cls-1{font-size:340.23px;fill:#fff;font-family:Merienda-Bold, Merienda;font-weight:700;}.cls-2{fill:#fc3c04;}</style></defs><g id="Layer_2" data-name="Layer 2"><g id="Layer_1-2" data-name="Layer 1"><text class="cls-1" transform="translate(234.54 325.59)">Kulineran <tspan x="631.12" y="408.28">Yogya</tspan></text><path class="cls-2" d="M0,284.8a187.46,187.46,0,0,0,13.8,17.12c4.87,5.48,9.94,10.77,15.15,15.93,10.41,10.3,21.38,20,32.69,29.32A668.84,668.84,0,0,0,133.12,398q18.63,11.58,37.86,22.15t38.87,20.32c26.2,13,53,24.74,80.11,35.63,54.3,21.7,110.08,39.56,166.57,54.61,7.05,1.92,14.16,3.66,21.23,5.51l21.29,5.23,21.39,5q10.77,2.47,21.51,5.1c28.65,7,57.19,14.62,85.44,23.64,14.13,4.53,28.18,9.41,42.07,15s27.65,11.77,40.95,19.65a127.23,127.23,0,0,1,19.33,13.83,67.82,67.82,0,0,1,8.75,9.31,42.55,42.55,0,0,1,6.75,12.39,32.13,32.13,0,0,1,1.25,15.47A36.69,36.69,0,0,1,741,674.62a57,57,0,0,1-8.58,10.14,88.64,88.64,0,0,1-9.57,7.83,155.92,155.92,0,0,1-20.18,12c-6.86,3.48-13.81,6.57-20.8,9.43-14,5.7-28.16,10.5-42.4,14.88-28.49,8.73-57.28,15.7-86.17,22-57.79,12.44-116,22-174.3,30.23q-43.74,6.17-87.6,11.34c-29.26,3.43-58.45,6.58-87.9,9.3l2.28-22.34c9.16,2.7,18.58,5.34,27.92,7.91s18.75,5.11,28.15,7.58q28.21,7.44,56.56,14.41,56.67,14,113.75,26.46Q546.24,860.64,661.51,880c76.82,12.79,153.94,23.84,231.32,32.58q58,6.68,116.22,11.61t116.51,8.1c77.75,4.13,155.64,5.84,233.49,4.37,9.73-.16,19.45-.43,29.18-.66s19.46-.59,29.18-1,19.45-.84,29.17-1.28,19.44-1,29.15-1.64,19.42-1.28,29.14-1.93,19.41-1.43,29.1-2.28,19.39-1.72,29.09-2.61,19.37-1.92,29-3,19.34-2.22,29-3.34,19.32-2.4,29-3.75,19.28-2.71,28.91-4.11,19.25-2.94,28.85-4.56,19.2-3.26,28.79-4.93,19.16-3.5,28.71-5.4q28.67-5.61,57.16-12.12,57-13,113-30.06c18.64-5.72,37.2-11.7,55.61-18.14s36.7-13.26,54.87-20.4q-26.85,11.67-54.21,22.18c-18.24,7-36.64,13.58-55.15,19.86q-55.59,18.62-112.51,33.1c-75.8,19.36-153,33.42-230.58,43.4-9.7,1.28-19.42,2.4-29.13,3.56s-19.45,2.19-29.19,3.15-19.48,1.91-29.22,2.84-19.5,1.71-29.26,2.42-19.51,1.43-29.28,2.12-19.53,1.24-29.3,1.75q-29.31,1.62-58.66,2.59c-78.25,2.54-156.58,1.91-234.79-1.46-156.43-6.71-312.29-24-466.77-49Q542,883,427.25,858.11q-57.36-12.47-114.39-26.46-28.51-7-56.91-14.57-14.2-3.76-28.38-7.67c-9.47-2.63-18.84-5.26-28.4-8.09A11.43,11.43,0,0,1,201.36,779h.09c29-2.62,58.22-5.75,87.29-9.08S346.89,763,375.89,759s57.94-8.29,86.8-13,57.6-9.94,86.15-15.89q21.42-4.47,42.62-9.59c14.13-3.45,28.18-7.12,42-11.23s27.57-8.61,40.82-13.86c6.62-2.63,13.13-5.45,19.4-8.55a136.74,136.74,0,0,0,17.73-10.29c5.4-3.78,10.29-8.09,13.25-12.56a17.35,17.35,0,0,0,2.8-6.45,12.74,12.74,0,0,0-.45-6.26c-1.35-4.43-5.21-9.34-9.94-13.65a109.19,109.19,0,0,0-16.3-11.94c-11.88-7.25-24.9-13.34-38.16-18.88S635.73,596.36,622,591.7c-27.55-9.28-55.65-17.27-83.93-24.65q-10.62-2.76-21.26-5.41l-21.41-5.42L474,550.55c-7.1-2-14.23-3.87-21.3-5.95-28.35-8.12-56.51-16.92-84.33-26.7-13.93-4.82-27.75-10-41.52-15.24s-27.41-10.9-41-16.67c-27.1-11.63-53.83-24.14-79.89-37.94q-19.56-10.32-38.63-21.52t-37.47-23.47q-18.42-12.24-36.07-25.55c-11.76-8.88-23.23-18.13-34.28-27.87S37.83,329.73,27.75,319c-5-5.36-9.95-10.85-14.62-16.53A188.26,188.26,0,0,1,0,284.8Z"/></g></g></svg>