<svg id="visual" viewBox="0 0 900 600" width="900" height="600" xmlns="http://www.w3.org/2000/svg" xmlns:xlink="http://www.w3.org/1999/xlink" version="1.1"><path d="M0 389L25 408.5C50 428 100 467 150 469.2C200 471.3 250 436.7 300 417C350 397.3 400 392.7 450 397.2C500 401.7 550 415.3 600 433.8C650 452.3 700 475.7 750 481.8C800 488 850 477 875 471.5L900 466L900 601L875 601C850 601 800 601 750 601C700 601 650 601 600 601C550 601 500 601 450 601C400 601 350 601 300 601C250 601 200 601 150 601C100 601 50 601 25 601L0 601Z" fill="#0d6efd" stroke-linecap="round" stroke-linejoin="miter"></path></svg>